<?xml version="1.0" encoding="us-ascii" standalone="no"?><svg xmlns="http://www.w3.org/2000/svg" xmlns:xlink="http://www.w3.org/1999/xlink" contentStyleType="text/css" height="1095px" preserveAspectRatio="none" style="width:946px;height:1095px;background:#FFFFFF;" version="1.1" viewBox="0 0 946 1095" width="946px" zoomAndPan="magnify"><defs/><g><!--class User--><g id="elem_User"><rect codeLine="5" fill="#F1F1F1" height="154.0781" id="User" rx="5" ry="5" style="stroke:#181818;stroke-width:0.5;" width="94" x="349.5" y="934"/><ellipse cx="378.45" cy="950" fill="#ADD1B2" rx="11" ry="11" style="stroke:#181818;stroke-width:1.0;"/><path d="M380.7938,945.6719 C379.8563,945.2344 379.2625,945.0938 378.3875,945.0938 C375.7625,945.0938 373.7625,947.1719 373.7625,949.8906 L373.7625,951.0156 C373.7625,953.5938 375.8719,955.4844 378.7625,955.4844 C379.9813,955.4844 381.1375,955.1875 381.8875,954.6406 C382.4656,954.2344 382.7938,953.7813 382.7938,953.3906 C382.7938,952.9375 382.4031,952.5469 381.9344,952.5469 C381.7156,952.5469 381.5125,952.625 381.325,952.8125 C380.8719,953.2969 380.8719,953.2969 380.6844,953.3906 C380.2625,953.6563 379.575,953.7813 378.8094,953.7813 C376.7625,953.7813 375.4656,952.6875 375.4656,950.9844 L375.4656,949.8906 C375.4656,948.1094 376.7156,946.7969 378.45,946.7969 C379.0281,946.7969 379.6375,946.9531 380.1063,947.2031 C380.5906,947.4844 380.7625,947.7031 380.8563,948.1094 C380.9188,948.5156 380.95,948.6406 381.0906,948.7656 C381.2313,948.9063 381.4656,949.0156 381.6844,949.0156 C381.95,949.0156 382.2156,948.875 382.3875,948.6563 C382.4969,948.5 382.5281,948.3125 382.5281,947.8906 L382.5281,946.4688 C382.5281,946.0313 382.5125,945.9063 382.4188,945.75 C382.2625,945.4844 381.9813,945.3438 381.6844,945.3438 C381.3875,945.3438 381.1844,945.4375 380.9656,945.75 L380.7938,945.6719 Z " fill="#000000"/><text fill="#000000" font-family="sans-serif" font-size="14" lengthAdjust="spacing" textLength="31" x="395.55" y="954.8467">User</text><line style="stroke:#181818;stroke-width:0.5;" x1="350.5" x2="442.5" y1="966" y2="966"/><text fill="#000000" font-family="sans-serif" font-size="14" lengthAdjust="spacing" textLength="70" x="355.5" y="982.9951">username</text><text fill="#000000" font-family="sans-serif" font-size="14" lengthAdjust="spacing" textLength="39" x="355.5" y="999.292">email</text><text fill="#000000" font-family="sans-serif" font-size="14" lengthAdjust="spacing" textLength="67" x="355.5" y="1015.5889">password</text><text fill="#000000" font-family="sans-serif" font-size="14" lengthAdjust="spacing" textLength="82" x="355.5" y="1031.8857">description</text><text fill="#000000" font-family="sans-serif" font-size="14" lengthAdjust="spacing" textLength="64" x="355.5" y="1048.1826">avatarUrl</text><text fill="#000000" font-family="sans-serif" font-size="14" lengthAdjust="spacing" textLength="28" x="355.5" y="1064.4795">role</text><text fill="#000000" font-family="sans-serif" font-size="14" lengthAdjust="spacing" textLength="76" x="355.5" y="1080.7764">createdOn</text></g><!--class Invitation--><g id="elem_Invitation"><rect codeLine="15" fill="#F1F1F1" height="72.5938" id="Invitation" rx="5" ry="5" style="stroke:#181818;stroke-width:0.5;" width="101" x="7" y="743.5"/><ellipse cx="22" cy="759.5" fill="#ADD1B2" rx="11" ry="11" style="stroke:#181818;stroke-width:1.0;"/><path d="M24.3438,755.1719 C23.4063,754.7344 22.8125,754.5938 21.9375,754.5938 C19.3125,754.5938 17.3125,756.6719 17.3125,759.3906 L17.3125,760.5156 C17.3125,763.0938 19.4219,764.9844 22.3125,764.9844 C23.5313,764.9844 24.6875,764.6875 25.4375,764.1406 C26.0156,763.7344 26.3438,763.2813 26.3438,762.8906 C26.3438,762.4375 25.9531,762.0469 25.4844,762.0469 C25.2656,762.0469 25.0625,762.125 24.875,762.3125 C24.4219,762.7969 24.4219,762.7969 24.2344,762.8906 C23.8125,763.1563 23.125,763.2813 22.3594,763.2813 C20.3125,763.2813 19.0156,762.1875 19.0156,760.4844 L19.0156,759.3906 C19.0156,757.6094 20.2656,756.2969 22,756.2969 C22.5781,756.2969 23.1875,756.4531 23.6563,756.7031 C24.1406,756.9844 24.3125,757.2031 24.4063,757.6094 C24.4688,758.0156 24.5,758.1406 24.6406,758.2656 C24.7813,758.4063 25.0156,758.5156 25.2344,758.5156 C25.5,758.5156 25.7656,758.375 25.9375,758.1563 C26.0469,758 26.0781,757.8125 26.0781,757.3906 L26.0781,755.9688 C26.0781,755.5313 26.0625,755.4063 25.9688,755.25 C25.8125,754.9844 25.5313,754.8438 25.2344,754.8438 C24.9375,754.8438 24.7344,754.9375 24.5156,755.25 L24.3438,755.1719 Z " fill="#000000"/><text fill="#000000" font-family="sans-serif" font-size="14" lengthAdjust="spacing" textLength="69" x="36" y="764.3467">Invitation</text><line style="stroke:#181818;stroke-width:0.5;" x1="8" x2="107" y1="775.5" y2="775.5"/><text fill="#000000" font-family="sans-serif" font-size="14" lengthAdjust="spacing" textLength="76" x="13" y="792.4951">createdOn</text><text fill="#000000" font-family="sans-serif" font-size="14" lengthAdjust="spacing" textLength="63" x="13" y="808.792">message</text></g><!--class Subcription--><g id="elem_Subcription"><rect codeLine="20" fill="#F1F1F1" height="88.8906" id="Subcription" rx="5" ry="5" style="stroke:#181818;stroke-width:0.5;" width="116" x="175.5" y="735.5"/><ellipse cx="190.5" cy="751.5" fill="#ADD1B2" rx="11" ry="11" style="stroke:#181818;stroke-width:1.0;"/><path d="M192.8438,747.1719 C191.9063,746.7344 191.3125,746.5938 190.4375,746.5938 C187.8125,746.5938 185.8125,748.6719 185.8125,751.3906 L185.8125,752.5156 C185.8125,755.0938 187.9219,756.9844 190.8125,756.9844 C192.0313,756.9844 193.1875,756.6875 193.9375,756.1406 C194.5156,755.7344 194.8438,755.2813 194.8438,754.8906 C194.8438,754.4375 194.4531,754.0469 193.9844,754.0469 C193.7656,754.0469 193.5625,754.125 193.375,754.3125 C192.9219,754.7969 192.9219,754.7969 192.7344,754.8906 C192.3125,755.1563 191.625,755.2813 190.8594,755.2813 C188.8125,755.2813 187.5156,754.1875 187.5156,752.4844 L187.5156,751.3906 C187.5156,749.6094 188.7656,748.2969 190.5,748.2969 C191.0781,748.2969 191.6875,748.4531 192.1563,748.7031 C192.6406,748.9844 192.8125,749.2031 192.9063,749.6094 C192.9688,750.0156 193,750.1406 193.1406,750.2656 C193.2813,750.4063 193.5156,750.5156 193.7344,750.5156 C194,750.5156 194.2656,750.375 194.4375,750.1563 C194.5469,750 194.5781,749.8125 194.5781,749.3906 L194.5781,747.9688 C194.5781,747.5313 194.5625,747.4063 194.4688,747.25 C194.3125,746.9844 194.0313,746.8438 193.7344,746.8438 C193.4375,746.8438 193.2344,746.9375 193.0156,747.25 L192.8438,747.1719 Z " fill="#000000"/><text fill="#000000" font-family="sans-serif" font-size="14" lengthAdjust="spacing" textLength="84" x="204.5" y="756.3467">Subcription</text><line style="stroke:#181818;stroke-width:0.5;" x1="176.5" x2="290.5" y1="767.5" y2="767.5"/><text fill="#000000" font-family="sans-serif" font-size="14" lengthAdjust="spacing" textLength="44" x="181.5" y="784.4951">active</text><text fill="#000000" font-family="sans-serif" font-size="14" lengthAdjust="spacing" textLength="80" x="181.5" y="800.792">disabledOn</text><text fill="#000000" font-family="sans-serif" font-size="14" lengthAdjust="spacing" textLength="76" x="181.5" y="817.0889">createdOn</text></g><!--class Request--><g id="elem_Request"><rect codeLine="26" fill="#F1F1F1" height="56.2969" id="Request" rx="5" ry="5" style="stroke:#181818;stroke-width:0.5;" width="91" x="620" y="339"/><ellipse cx="635" cy="355" fill="#ADD1B2" rx="11" ry="11" style="stroke:#181818;stroke-width:1.0;"/><path d="M637.3438,350.6719 C636.4063,350.2344 635.8125,350.0938 634.9375,350.0938 C632.3125,350.0938 630.3125,352.1719 630.3125,354.8906 L630.3125,356.0156 C630.3125,358.5938 632.4219,360.4844 635.3125,360.4844 C636.5313,360.4844 637.6875,360.1875 638.4375,359.6406 C639.0156,359.2344 639.3438,358.7813 639.3438,358.3906 C639.3438,357.9375 638.9531,357.5469 638.4844,357.5469 C638.2656,357.5469 638.0625,357.625 637.875,357.8125 C637.4219,358.2969 637.4219,358.2969 637.2344,358.3906 C636.8125,358.6563 636.125,358.7813 635.3594,358.7813 C633.3125,358.7813 632.0156,357.6875 632.0156,355.9844 L632.0156,354.8906 C632.0156,353.1094 633.2656,351.7969 635,351.7969 C635.5781,351.7969 636.1875,351.9531 636.6563,352.2031 C637.1406,352.4844 637.3125,352.7031 637.4063,353.1094 C637.4688,353.5156 637.5,353.6406 637.6406,353.7656 C637.7813,353.9063 638.0156,354.0156 638.2344,354.0156 C638.5,354.0156 638.7656,353.875 638.9375,353.6563 C639.0469,353.5 639.0781,353.3125 639.0781,352.8906 L639.0781,351.4688 C639.0781,351.0313 639.0625,350.9063 638.9688,350.75 C638.8125,350.4844 638.5313,350.3438 638.2344,350.3438 C637.9375,350.3438 637.7344,350.4375 637.5156,350.75 L637.3438,350.6719 Z " fill="#000000"/><text fill="#000000" font-family="sans-serif" font-size="14" lengthAdjust="spacing" textLength="59" x="649" y="359.8467">Request</text><line style="stroke:#181818;stroke-width:0.5;" x1="621" x2="710" y1="371" y2="371"/><text fill="#000000" font-family="sans-serif" font-size="14" lengthAdjust="spacing" textLength="76" x="626" y="387.9951">createdOn</text></g><!--class RequestEvent--><g id="elem_RequestEvent"><rect codeLine="30" fill="#F1F1F1" height="88.8906" id="RequestEvent" rx="5" ry="5" style="stroke:#181818;stroke-width:0.5;" width="133" x="572" y="165"/><ellipse cx="587" cy="181" fill="#ADD1B2" rx="11" ry="11" style="stroke:#181818;stroke-width:1.0;"/><path d="M589.3438,176.6719 C588.4063,176.2344 587.8125,176.0938 586.9375,176.0938 C584.3125,176.0938 582.3125,178.1719 582.3125,180.8906 L582.3125,182.0156 C582.3125,184.5938 584.4219,186.4844 587.3125,186.4844 C588.5313,186.4844 589.6875,186.1875 590.4375,185.6406 C591.0156,185.2344 591.3438,184.7813 591.3438,184.3906 C591.3438,183.9375 590.9531,183.5469 590.4844,183.5469 C590.2656,183.5469 590.0625,183.625 589.875,183.8125 C589.4219,184.2969 589.4219,184.2969 589.2344,184.3906 C588.8125,184.6563 588.125,184.7813 587.3594,184.7813 C585.3125,184.7813 584.0156,183.6875 584.0156,181.9844 L584.0156,180.8906 C584.0156,179.1094 585.2656,177.7969 587,177.7969 C587.5781,177.7969 588.1875,177.9531 588.6563,178.2031 C589.1406,178.4844 589.3125,178.7031 589.4063,179.1094 C589.4688,179.5156 589.5,179.6406 589.6406,179.7656 C589.7813,179.9063 590.0156,180.0156 590.2344,180.0156 C590.5,180.0156 590.7656,179.875 590.9375,179.6563 C591.0469,179.5 591.0781,179.3125 591.0781,178.8906 L591.0781,177.4688 C591.0781,177.0313 591.0625,176.9063 590.9688,176.75 C590.8125,176.4844 590.5313,176.3438 590.2344,176.3438 C589.9375,176.3438 589.7344,176.4375 589.5156,176.75 L589.3438,176.6719 Z " fill="#000000"/><text fill="#000000" font-family="sans-serif" font-size="14" lengthAdjust="spacing" textLength="101" x="601" y="185.8467">RequestEvent</text><line style="stroke:#181818;stroke-width:0.5;" x1="573" x2="704" y1="197" y2="197"/><text fill="#000000" font-family="sans-serif" font-size="14" lengthAdjust="spacing" textLength="63" x="578" y="213.9951">message</text><text fill="#000000" font-family="sans-serif" font-size="14" lengthAdjust="spacing" textLength="38" x="578" y="230.292">state</text><text fill="#000000" font-family="sans-serif" font-size="14" lengthAdjust="spacing" textLength="76" x="578" y="246.5889">createdOn</text></g><!--class Review--><g id="elem_Review"><rect codeLine="36" fill="#F1F1F1" height="105.1875" id="Review" rx="5" ry="5" style="stroke:#181818;stroke-width:0.5;" width="88" x="740.5" y="157"/><ellipse cx="757.75" cy="173" fill="#ADD1B2" rx="11" ry="11" style="stroke:#181818;stroke-width:1.0;"/><path d="M760.0938,168.6719 C759.1563,168.2344 758.5625,168.0938 757.6875,168.0938 C755.0625,168.0938 753.0625,170.1719 753.0625,172.8906 L753.0625,174.0156 C753.0625,176.5938 755.1719,178.4844 758.0625,178.4844 C759.2813,178.4844 760.4375,178.1875 761.1875,177.6406 C761.7656,177.2344 762.0938,176.7813 762.0938,176.3906 C762.0938,175.9375 761.7031,175.5469 761.2344,175.5469 C761.0156,175.5469 760.8125,175.625 760.625,175.8125 C760.1719,176.2969 760.1719,176.2969 759.9844,176.3906 C759.5625,176.6563 758.875,176.7813 758.1094,176.7813 C756.0625,176.7813 754.7656,175.6875 754.7656,173.9844 L754.7656,172.8906 C754.7656,171.1094 756.0156,169.7969 757.75,169.7969 C758.3281,169.7969 758.9375,169.9531 759.4063,170.2031 C759.8906,170.4844 760.0625,170.7031 760.1563,171.1094 C760.2188,171.5156 760.25,171.6406 760.3906,171.7656 C760.5313,171.9063 760.7656,172.0156 760.9844,172.0156 C761.25,172.0156 761.5156,171.875 761.6875,171.6563 C761.7969,171.5 761.8281,171.3125 761.8281,170.8906 L761.8281,169.4688 C761.8281,169.0313 761.8125,168.9063 761.7188,168.75 C761.5625,168.4844 761.2813,168.3438 760.9844,168.3438 C760.6875,168.3438 760.4844,168.4375 760.2656,168.75 L760.0938,168.6719 Z " fill="#000000"/><text fill="#000000" font-family="sans-serif" font-size="14" lengthAdjust="spacing" textLength="51" x="772.25" y="177.8467">Review</text><line style="stroke:#181818;stroke-width:0.5;" x1="741.5" x2="827.5" y1="189" y2="189"/><text fill="#000000" font-family="sans-serif" font-size="14" lengthAdjust="spacing" textLength="34" x="746.5" y="205.9951">note</text><text fill="#000000" font-family="sans-serif" font-size="14" lengthAdjust="spacing" textLength="31" x="746.5" y="222.292">title</text><text fill="#000000" font-family="sans-serif" font-size="14" lengthAdjust="spacing" textLength="63" x="746.5" y="238.5889">message</text><text fill="#000000" font-family="sans-serif" font-size="14" lengthAdjust="spacing" textLength="76" x="746.5" y="254.8857">createdOn</text></g><!--class Condition--><g id="elem_Condition"><rect codeLine="43" fill="#F1F1F1" height="154.0781" id="Condition" rx="5" ry="5" style="stroke:#181818;stroke-width:0.5;" width="121" x="491" y="703"/><ellipse cx="514.55" cy="719" fill="#ADD1B2" rx="11" ry="11" style="stroke:#181818;stroke-width:1.0;"/><path d="M516.8938,714.6719 C515.9563,714.2344 515.3625,714.0938 514.4875,714.0938 C511.8625,714.0938 509.8625,716.1719 509.8625,718.8906 L509.8625,720.0156 C509.8625,722.5938 511.9719,724.4844 514.8625,724.4844 C516.0813,724.4844 517.2375,724.1875 517.9875,723.6406 C518.5656,723.2344 518.8938,722.7813 518.8938,722.3906 C518.8938,721.9375 518.5031,721.5469 518.0344,721.5469 C517.8156,721.5469 517.6125,721.625 517.425,721.8125 C516.9719,722.2969 516.9719,722.2969 516.7844,722.3906 C516.3625,722.6563 515.675,722.7813 514.9094,722.7813 C512.8625,722.7813 511.5656,721.6875 511.5656,719.9844 L511.5656,718.8906 C511.5656,717.1094 512.8156,715.7969 514.55,715.7969 C515.1281,715.7969 515.7375,715.9531 516.2063,716.2031 C516.6906,716.4844 516.8625,716.7031 516.9563,717.1094 C517.0188,717.5156 517.05,717.6406 517.1906,717.7656 C517.3313,717.9063 517.5656,718.0156 517.7844,718.0156 C518.05,718.0156 518.3156,717.875 518.4875,717.6563 C518.5969,717.5 518.6281,717.3125 518.6281,716.8906 L518.6281,715.4688 C518.6281,715.0313 518.6125,714.9063 518.5188,714.75 C518.3625,714.4844 518.0813,714.3438 517.7844,714.3438 C517.4875,714.3438 517.2844,714.4375 517.0656,714.75 L516.8938,714.6719 Z " fill="#000000"/><text fill="#000000" font-family="sans-serif" font-size="14" lengthAdjust="spacing" textLength="70" x="530.45" y="723.8467">Condition</text><line style="stroke:#181818;stroke-width:0.5;" x1="492" x2="611" y1="735" y2="735"/><text fill="#000000" font-family="sans-serif" font-size="14" lengthAdjust="spacing" textLength="40" x="497" y="751.9951">name</text><text fill="#000000" font-family="sans-serif" font-size="14" lengthAdjust="spacing" textLength="81" x="497" y="768.292">refundRate</text><text fill="#000000" font-family="sans-serif" font-size="14" lengthAdjust="spacing" textLength="86" x="497" y="784.5889">refundMode</text><text fill="#000000" font-family="sans-serif" font-size="14" lengthAdjust="spacing" textLength="63" x="497" y="800.8857">message</text><text fill="#000000" font-family="sans-serif" font-size="14" lengthAdjust="spacing" textLength="109" x="497" y="817.1826">requirePictures</text><text fill="#000000" font-family="sans-serif" font-size="14" lengthAdjust="spacing" textLength="99" x="497" y="833.4795">requireVideos</text><text fill="#000000" font-family="sans-serif" font-size="14" lengthAdjust="spacing" textLength="76" x="497" y="849.7764">createdOn</text></g><!--class Product--><g id="elem_Product"><rect codeLine="53" fill="#F1F1F1" height="154.0781" id="Product" rx="5" ry="5" style="stroke:#181818;stroke-width:0.5;" width="137" x="455" y="472"/><ellipse cx="492.05" cy="488" fill="#ADD1B2" rx="11" ry="11" style="stroke:#181818;stroke-width:1.0;"/><path d="M494.3938,483.6719 C493.4563,483.2344 492.8625,483.0938 491.9875,483.0938 C489.3625,483.0938 487.3625,485.1719 487.3625,487.8906 L487.3625,489.0156 C487.3625,491.5938 489.4719,493.4844 492.3625,493.4844 C493.5813,493.4844 494.7375,493.1875 495.4875,492.6406 C496.0656,492.2344 496.3938,491.7813 496.3938,491.3906 C496.3938,490.9375 496.0031,490.5469 495.5344,490.5469 C495.3156,490.5469 495.1125,490.625 494.925,490.8125 C494.4719,491.2969 494.4719,491.2969 494.2844,491.3906 C493.8625,491.6563 493.175,491.7813 492.4094,491.7813 C490.3625,491.7813 489.0656,490.6875 489.0656,488.9844 L489.0656,487.8906 C489.0656,486.1094 490.3156,484.7969 492.05,484.7969 C492.6281,484.7969 493.2375,484.9531 493.7063,485.2031 C494.1906,485.4844 494.3625,485.7031 494.4563,486.1094 C494.5188,486.5156 494.55,486.6406 494.6906,486.7656 C494.8313,486.9063 495.0656,487.0156 495.2844,487.0156 C495.55,487.0156 495.8156,486.875 495.9875,486.6563 C496.0969,486.5 496.1281,486.3125 496.1281,485.8906 L496.1281,484.4688 C496.1281,484.0313 496.1125,483.9063 496.0188,483.75 C495.8625,483.4844 495.5813,483.3438 495.2844,483.3438 C494.9875,483.3438 494.7844,483.4375 494.5656,483.75 L494.3938,483.6719 Z " fill="#000000"/><text fill="#000000" font-family="sans-serif" font-size="14" lengthAdjust="spacing" textLength="56" x="510.95" y="492.8467">Product</text><line style="stroke:#181818;stroke-width:0.5;" x1="456" x2="591" y1="504" y2="504"/><text fill="#000000" font-family="sans-serif" font-size="14" lengthAdjust="spacing" textLength="40" x="461" y="520.9951">name</text><text fill="#000000" font-family="sans-serif" font-size="14" lengthAdjust="spacing" textLength="82" x="461" y="537.292">description</text><text fill="#000000" font-family="sans-serif" font-size="14" lengthAdjust="spacing" textLength="37" x="461" y="553.5889">price</text><text fill="#000000" font-family="sans-serif" font-size="14" lengthAdjust="spacing" textLength="125" x="461" y="569.8857">availableQuantity</text><text fill="#000000" font-family="sans-serif" font-size="14" lengthAdjust="spacing" textLength="70" x="461" y="586.1826">published</text><text fill="#000000" font-family="sans-serif" font-size="14" lengthAdjust="spacing" textLength="26" x="461" y="602.4795">link</text><text fill="#000000" font-family="sans-serif" font-size="14" lengthAdjust="spacing" textLength="76" x="461" y="618.7764">createdOn</text></g><!--class Media--><g id="elem_Media"><rect codeLine="63" fill="#F1F1F1" height="72.5938" id="Media" rx="5" ry="5" style="stroke:#181818;stroke-width:0.5;" width="74" x="562.5" y="7"/><ellipse cx="577.5" cy="23" fill="#ADD1B2" rx="11" ry="11" style="stroke:#181818;stroke-width:1.0;"/><path d="M579.8438,18.6719 C578.9063,18.2344 578.3125,18.0938 577.4375,18.0938 C574.8125,18.0938 572.8125,20.1719 572.8125,22.8906 L572.8125,24.0156 C572.8125,26.5938 574.9219,28.4844 577.8125,28.4844 C579.0313,28.4844 580.1875,28.1875 580.9375,27.6406 C581.5156,27.2344 581.8438,26.7813 581.8438,26.3906 C581.8438,25.9375 581.4531,25.5469 580.9844,25.5469 C580.7656,25.5469 580.5625,25.625 580.375,25.8125 C579.9219,26.2969 579.9219,26.2969 579.7344,26.3906 C579.3125,26.6563 578.625,26.7813 577.8594,26.7813 C575.8125,26.7813 574.5156,25.6875 574.5156,23.9844 L574.5156,22.8906 C574.5156,21.1094 575.7656,19.7969 577.5,19.7969 C578.0781,19.7969 578.6875,19.9531 579.1563,20.2031 C579.6406,20.4844 579.8125,20.7031 579.9063,21.1094 C579.9688,21.5156 580,21.6406 580.1406,21.7656 C580.2813,21.9063 580.5156,22.0156 580.7344,22.0156 C581,22.0156 581.2656,21.875 581.4375,21.6563 C581.5469,21.5 581.5781,21.3125 581.5781,20.8906 L581.5781,19.4688 C581.5781,19.0313 581.5625,18.9063 581.4688,18.75 C581.3125,18.4844 581.0313,18.3438 580.7344,18.3438 C580.4375,18.3438 580.2344,18.4375 580.0156,18.75 L579.8438,18.6719 Z " fill="#000000"/><text fill="#000000" font-family="sans-serif" font-size="14" lengthAdjust="spacing" textLength="42" x="591.5" y="27.8467">Media</text><line style="stroke:#181818;stroke-width:0.5;" x1="563.5" x2="635.5" y1="39" y2="39"/><text fill="#000000" font-family="sans-serif" font-size="14" lengthAdjust="spacing" textLength="55" x="568.5" y="55.9951">caption</text><text fill="#000000" font-family="sans-serif" font-size="14" lengthAdjust="spacing" textLength="18" x="568.5" y="72.292">url</text></g><!--link Invitation to User--><g id="link_Invitation_User"><path codeLine="68" d="M37.8023,816.669 C26.0808,843.201 16.7798,878.993 35.5,904 C73.3723,954.592 260.24,989.2632 349.227,1003.1772 " fill="none" id="Invitation-User" style="stroke:#181818;stroke-width:1.0;"/><text fill="#000000" font-family="sans-serif" font-size="13" lengthAdjust="spacing" textLength="44" x="36.5" y="900.0669">sender</text><text fill="#000000" font-family="sans-serif" font-size="13" lengthAdjust="spacing" textLength="7" x="26.9602" y="836.096">*</text><text fill="#000000" font-family="sans-serif" font-size="13" lengthAdjust="spacing" textLength="8" x="333.3758" y="997.902">1</text></g><!--link Invitation to User--><g id="link_Invitation_User"><path codeLine="69" d="M76.4724,816.59 C92.3923,843.607 117.342,880.069 147.5,904 C208.962,952.772 296.198,983.02 349.425,998.1576 " fill="none" id="Invitation-User-1" style="stroke:#181818;stroke-width:1.0;"/><text fill="#000000" font-family="sans-serif" font-size="13" lengthAdjust="spacing" textLength="55" x="148.5" y="900.0669">recipient</text><text fill="#000000" font-family="sans-serif" font-size="13" lengthAdjust="spacing" textLength="7" x="72.1317" y="836.2812">*</text><text fill="#000000" font-family="sans-serif" font-size="13" lengthAdjust="spacing" textLength="8" x="333.6041" y="1009.4106">1</text></g><!--link Subcription to User--><g id="link_Subcription_User"><path codeLine="71" d="M215.795,824.546 C208.643,849.311 204.893,880.061 218.5,904 C246.314,952.936 306.644,981.655 349.339,996.5866 " fill="none" id="Subcription-User" style="stroke:#181818;stroke-width:1.0;"/><text fill="#000000" font-family="sans-serif" font-size="13" lengthAdjust="spacing" textLength="51" x="219.5" y="900.0669">follower</text><text fill="#000000" font-family="sans-serif" font-size="13" lengthAdjust="spacing" textLength="7" x="205.548" y="844.601">*</text><text fill="#000000" font-family="sans-serif" font-size="13" lengthAdjust="spacing" textLength="8" x="333.505" y="990.3027">1</text></g><!--link Subcription to User--><g id="link_Subcription_User"><path codeLine="72" d="M259.61,824.748 C274.246,848.596 293.195,878.388 311.5,904 C323.296,920.504 336.759,937.883 349.438,953.685 " fill="none" id="Subcription-User-1" style="stroke:#181818;stroke-width:1.0;"/><text fill="#000000" font-family="sans-serif" font-size="13" lengthAdjust="spacing" textLength="57" x="312.5" y="900.0669">following</text><text fill="#000000" font-family="sans-serif" font-size="13" lengthAdjust="spacing" textLength="7" x="255.9308" y="844.5066">*</text><text fill="#000000" font-family="sans-serif" font-size="13" lengthAdjust="spacing" textLength="8" x="333.6191" y="940.8313">1</text></g><!--link Request to Product--><g id="link_Request_Product"><path codeLine="74" d="M620.204,395.131 C608.281,403.679 596.086,413.837 586.5,425 C574.542,438.924 564.105,455.51 555.348,471.924 " fill="none" id="Request-Product" style="stroke:#181818;stroke-width:1.0;"/><text fill="#000000" font-family="sans-serif" font-size="13" lengthAdjust="spacing" textLength="51" x="587.5" y="438.0669">concern</text><text fill="#000000" font-family="sans-serif" font-size="13" lengthAdjust="spacing" textLength="7" x="605.1222" y="395.6013">*</text><text fill="#000000" font-family="sans-serif" font-size="13" lengthAdjust="spacing" textLength="8" x="550.0023" y="460.9324">1</text></g><!--link Request to User--><g id="link_Request_User"><path codeLine="75" d="M664.889,395.143 C662.521,492.008 652.89,817.058 629.5,857 C587.927,927.991 498.82,972.167 443.643,993.8359 " fill="none" id="Request-User" style="stroke:#181818;stroke-width:1.0;"/><text fill="#000000" font-family="sans-serif" font-size="13" lengthAdjust="spacing" textLength="69" x="655.5" y="669.0669">created by</text><text fill="#000000" font-family="sans-serif" font-size="13" lengthAdjust="spacing" textLength="7" x="656.9383" y="415.4334">*</text><text fill="#000000" font-family="sans-serif" font-size="13" lengthAdjust="spacing" textLength="8" x="451.4743" y="987.1304">1</text></g><!--link Request to User--><g id="link_Request_User"><path codeLine="76" d="M678.883,395.058 C683.079,404.373 687.416,414.982 690.5,425 C721.23,524.807 723.904,552.012 733.5,656 C741.584,743.601 667.698,854.912 666.5,857 C618.905,939.948 507.509,981.425 443.667,999.0624 " fill="none" id="Request-User-1" style="stroke:#181818;stroke-width:1.0;"/><text fill="#000000" font-family="sans-serif" font-size="13" lengthAdjust="spacing" textLength="55" x="735.5" y="669.0669">recipient</text><text fill="#000000" font-family="sans-serif" font-size="13" lengthAdjust="spacing" textLength="7" x="674.1684" y="415.3287">*</text><text fill="#000000" font-family="sans-serif" font-size="13" lengthAdjust="spacing" textLength="8" x="451.5019" y="1010.454">1</text></g><!--link RequestEvent to Request--><g id="link_RequestEvent_Request"><path codeLine="78" d="M632.137,254.189 C630.916,271.481 631.15,291.394 635.5,309 C638.048,319.313 642.837,329.822 647.852,338.96 " fill="none" id="RequestEvent-Request" style="stroke:#181818;stroke-width:1.0;"/><text fill="#000000" font-family="sans-serif" font-size="13" lengthAdjust="spacing" textLength="98" x="636.5" y="305.0669">related request</text><text fill="#000000" font-family="sans-serif" font-size="13" lengthAdjust="spacing" textLength="7" x="623.6884" y="273.9389">*</text><text fill="#000000" font-family="sans-serif" font-size="13" lengthAdjust="spacing" textLength="8" x="634.8459" y="327.7893">1</text></g><!--link Review to User--><g id="link_Review_User"><path codeLine="80" d="M828.714,261.894 C848.951,290.584 868.5,328.106 868.5,366 C868.5,366 868.5,366 868.5,781 C868.5,968.396 563.611,1002.4906 443.918,1008.6549 " fill="none" id="Review-User" style="stroke:#181818;stroke-width:1.0;"/><text fill="#000000" font-family="sans-serif" font-size="13" lengthAdjust="spacing" textLength="69" x="869.5" y="553.5669">created by</text><text fill="#000000" font-family="sans-serif" font-size="13" lengthAdjust="spacing" textLength="7" x="827.4394" y="282.3796">*</text><text fill="#000000" font-family="sans-serif" font-size="13" lengthAdjust="spacing" textLength="8" x="451.47" y="1021.4829">1</text></g><!--link Review to Request--><g id="link_Review_Request"><path codeLine="81" d="M766.566,262.036 C759.579,278.028 750.554,295.091 739.5,309 C730.722,320.045 719.364,330.167 708.193,338.716 " fill="none" id="Review-Request" style="stroke:#181818;stroke-width:1.0;"/><text fill="#000000" font-family="sans-serif" font-size="13" lengthAdjust="spacing" textLength="65" x="752.5" y="305.0669">review for</text><text fill="#000000" font-family="sans-serif" font-size="13" lengthAdjust="spacing" textLength="24" x="738.5436" y="282.1666">0..1</text><text fill="#000000" font-family="sans-serif" font-size="13" lengthAdjust="spacing" textLength="8" x="708.6571" y="327.9372">1</text></g><!--link Condition to User--><g id="link_Condition_User"><path codeLine="83" d="M499.887,857.254 C481.746,884.056 461.466,914.018 443.706,940.258 " fill="none" id="Condition-User" style="stroke:#181818;stroke-width:1.0;"/><text fill="#000000" font-family="sans-serif" font-size="13" lengthAdjust="spacing" textLength="69" x="480.5" y="900.0669">created by</text><text fill="#000000" font-family="sans-serif" font-size="13" lengthAdjust="spacing" textLength="7" x="487.8063" y="877.1367">*</text><text fill="#000000" font-family="sans-serif" font-size="13" lengthAdjust="spacing" textLength="8" x="451.5469" y="925.3483">1</text></g><!--link Product to Condition--><g id="link_Product_Condition"><path codeLine="85" d="M528.656,626.218 C529.997,641.724 531.609,657.907 533.5,673 C534.719,682.724 536.194,692.917 537.771,702.979 " fill="none" id="Product-Condition" style="stroke:#181818;stroke-width:1.0;"/><text fill="#000000" font-family="sans-serif" font-size="13" lengthAdjust="spacing" textLength="87" x="534.5" y="669.0669">test condition</text><text fill="#000000" font-family="sans-serif" font-size="13" lengthAdjust="spacing" textLength="7" x="521.8087" y="646.0974">*</text><text fill="#000000" font-family="sans-serif" font-size="13" lengthAdjust="spacing" textLength="8" x="528.0812" y="691.9926">1</text></g><!--link Product to User--><g id="link_Product_User"><path codeLine="86" d="M454.923,617.202 C434.061,642.017 413.703,671.76 402.5,703 C375.596,778.018 378.069,870.116 384.783,933.761 " fill="none" id="Product-User" style="stroke:#181818;stroke-width:1.0;"/><text fill="#000000" font-family="sans-serif" font-size="13" lengthAdjust="spacing" textLength="69" x="403.5" y="784.5669">created by</text><text fill="#000000" font-family="sans-serif" font-size="13" lengthAdjust="spacing" textLength="7" x="440.0396" y="620.9112">*</text><text fill="#000000" font-family="sans-serif" font-size="13" lengthAdjust="spacing" textLength="8" x="375.3341" y="923.0185">1</text></g><!--link Media to Product--><g id="link_Media_Product"><path codeLine="88" d="M582.054,80.08 C572.236,101.778 560.729,130.372 554.5,157 C529.41,264.248 523.65,392.063 522.809,471.641 " fill="none" id="Media-Product" style="stroke:#181818;stroke-width:1.0;"/><text fill="#000000" font-family="sans-serif" font-size="13" lengthAdjust="spacing" textLength="62" x="533.5" y="305.0669">related to</text><text fill="#000000" font-family="sans-serif" font-size="13" lengthAdjust="spacing" textLength="7" x="571.4539" y="99.7695">*</text><text fill="#000000" font-family="sans-serif" font-size="13" lengthAdjust="spacing" textLength="8" x="514.3765" y="460.8875">1</text></g><!--link Media to Review--><g id="link_Media_Review"><path codeLine="89" d="M636.938,77.69 C666.817,104.176 708.748,141.347 740.28,169.299 " fill="none" id="Media-Review" style="stroke:#181818;stroke-width:1.0;"/><text fill="#000000" font-family="sans-serif" font-size="13" lengthAdjust="spacing" textLength="62" x="693.5" y="123.0669">related to</text><text fill="#000000" font-family="sans-serif" font-size="13" lengthAdjust="spacing" textLength="7" x="644.4859" y="79.7276">*</text><text fill="#000000" font-family="sans-serif" font-size="13" lengthAdjust="spacing" textLength="8" x="724.5949" y="158.7592">1</text></g><!--SRC=[ZPF1JiCm38RlUOfeHoGGk-wAE72OW26ufuctMKkJuYIT9iIxapODpRPkq4lZzFlz9xRhTcWQGQBcP8DHqf81ulDxjaK57Eh67tWDVckLEzwgAo37cDJ2EVxkekYByVY4k3IYXZw0Mg3kLqt4zfPK7oXmah3nQ4qVYrPuGU-KKB8wgIM1yA2U3VlEHa-cHIywuM0tCbrKWtDY0oF_5ghiD0Y4zDYc_0gTgFIlUC9k1Py1d3_pEWKUMp2PocVerYwU5IvhMuJze39s03twuVfbeWdvWpKAYulz5frW7JkvoiufN5frdfNYwP7W1QKF1AxS-uYzjkwIzmjP5QG_TJxjQqCe8NSOTLViro1ClE8XVG-LHhU5D1KQpQvxNp9TWaAHMo56bn3d9aB5QCnkPlpsbi_cipIP2-x0AA3h38741cCZ6Il7vXnSMwtjFgRx3uPcmrYUemBA9LnmQOsC_ymKD6GQYi6hmnMeEFxHL1Pa5dUmxZDIskaa_J3-uPsO-xkx-MJE_lFQ4cFZS5xDo78L2cgKBhZlCikyCKLFv4npCbdgV6rlpwdXTYNq0m00]--></g></svg>