<?xml version="1.0" encoding="us-ascii" standalone="no"?><svg xmlns="http://www.w3.org/2000/svg" xmlns:xlink="http://www.w3.org/1999/xlink" contentStyleType="text/css" height="1095px" preserveAspectRatio="none" style="width:946px;height:1095px;background:#FFFFFF;" version="1.1" viewBox="0 0 946 1095" width="946px" zoomAndPan="magnify"><defs/><g><!--class User--><g id="elem_User"><rect codeLine="5" fill="#F1F1F1" height="154.0781" id="User" rx="5" ry="5" style="stroke:#181818;stroke-width:0.5;" width="94" x="350.5" y="934"/><ellipse cx="379.45" cy="950" fill="#ADD1B2" rx="11" ry="11" style="stroke:#181818;stroke-width:1.0;"/><path d="M381.7938,945.6719 C380.8563,945.2344 380.2625,945.0938 379.3875,945.0938 C376.7625,945.0938 374.7625,947.1719 374.7625,949.8906 L374.7625,951.0156 C374.7625,953.5938 376.8719,955.4844 379.7625,955.4844 C380.9813,955.4844 382.1375,955.1875 382.8875,954.6406 C383.4656,954.2344 383.7938,953.7813 383.7938,953.3906 C383.7938,952.9375 383.4031,952.5469 382.9344,952.5469 C382.7156,952.5469 382.5125,952.625 382.325,952.8125 C381.8719,953.2969 381.8719,953.2969 381.6844,953.3906 C381.2625,953.6563 380.575,953.7813 379.8094,953.7813 C377.7625,953.7813 376.4656,952.6875 376.4656,950.9844 L376.4656,949.8906 C376.4656,948.1094 377.7156,946.7969 379.45,946.7969 C380.0281,946.7969 380.6375,946.9531 381.1063,947.2031 C381.5906,947.4844 381.7625,947.7031 381.8563,948.1094 C381.9188,948.5156 381.95,948.6406 382.0906,948.7656 C382.2313,948.9063 382.4656,949.0156 382.6844,949.0156 C382.95,949.0156 383.2156,948.875 383.3875,948.6563 C383.4969,948.5 383.5281,948.3125 383.5281,947.8906 L383.5281,946.4688 C383.5281,946.0313 383.5125,945.9063 383.4188,945.75 C383.2625,945.4844 382.9813,945.3438 382.6844,945.3438 C382.3875,945.3438 382.1844,945.4375 381.9656,945.75 L381.7938,945.6719 Z " fill="#000000"/><text fill="#000000" font-family="sans-serif" font-size="14" lengthAdjust="spacing" textLength="31" x="396.55" y="954.8467">User</text><line style="stroke:#181818;stroke-width:0.5;" x1="351.5" x2="443.5" y1="966" y2="966"/><text fill="#000000" font-family="sans-serif" font-size="14" lengthAdjust="spacing" textLength="70" x="356.5" y="982.9951">username</text><text fill="#000000" font-family="sans-serif" font-size="14" lengthAdjust="spacing" textLength="39" x="356.5" y="999.292">email</text><text fill="#000000" font-family="sans-serif" font-size="14" lengthAdjust="spacing" textLength="67" x="356.5" y="1015.5889">password</text><text fill="#000000" font-family="sans-serif" font-size="14" lengthAdjust="spacing" textLength="82" x="356.5" y="1031.8857">description</text><text fill="#000000" font-family="sans-serif" font-size="14" lengthAdjust="spacing" textLength="64" x="356.5" y="1048.1826">avatarUrl</text><text fill="#000000" font-family="sans-serif" font-size="14" lengthAdjust="spacing" textLength="28" x="356.5" y="1064.4795">role</text><text fill="#000000" font-family="sans-serif" font-size="14" lengthAdjust="spacing" textLength="76" x="356.5" y="1080.7764">createdOn</text></g><!--class Invitation--><g id="elem_Invitation"><rect codeLine="15" fill="#F1F1F1" height="88.8906" id="Invitation" rx="5" ry="5" style="stroke:#181818;stroke-width:0.5;" width="101" x="7" y="735.5"/><ellipse cx="22" cy="751.5" fill="#ADD1B2" rx="11" ry="11" style="stroke:#181818;stroke-width:1.0;"/><path d="M24.3438,747.1719 C23.4063,746.7344 22.8125,746.5938 21.9375,746.5938 C19.3125,746.5938 17.3125,748.6719 17.3125,751.3906 L17.3125,752.5156 C17.3125,755.0938 19.4219,756.9844 22.3125,756.9844 C23.5313,756.9844 24.6875,756.6875 25.4375,756.1406 C26.0156,755.7344 26.3438,755.2813 26.3438,754.8906 C26.3438,754.4375 25.9531,754.0469 25.4844,754.0469 C25.2656,754.0469 25.0625,754.125 24.875,754.3125 C24.4219,754.7969 24.4219,754.7969 24.2344,754.8906 C23.8125,755.1563 23.125,755.2813 22.3594,755.2813 C20.3125,755.2813 19.0156,754.1875 19.0156,752.4844 L19.0156,751.3906 C19.0156,749.6094 20.2656,748.2969 22,748.2969 C22.5781,748.2969 23.1875,748.4531 23.6563,748.7031 C24.1406,748.9844 24.3125,749.2031 24.4063,749.6094 C24.4688,750.0156 24.5,750.1406 24.6406,750.2656 C24.7813,750.4063 25.0156,750.5156 25.2344,750.5156 C25.5,750.5156 25.7656,750.375 25.9375,750.1563 C26.0469,750 26.0781,749.8125 26.0781,749.3906 L26.0781,747.9688 C26.0781,747.5313 26.0625,747.4063 25.9688,747.25 C25.8125,746.9844 25.5313,746.8438 25.2344,746.8438 C24.9375,746.8438 24.7344,746.9375 24.5156,747.25 L24.3438,747.1719 Z " fill="#000000"/><text fill="#000000" font-family="sans-serif" font-size="14" lengthAdjust="spacing" textLength="69" x="36" y="756.3467">Invitation</text><line style="stroke:#181818;stroke-width:0.5;" x1="8" x2="107" y1="767.5" y2="767.5"/><text fill="#000000" font-family="sans-serif" font-size="14" lengthAdjust="spacing" textLength="76" x="13" y="784.4951">createdOn</text><text fill="#000000" font-family="sans-serif" font-size="14" lengthAdjust="spacing" textLength="63" x="13" y="800.792">message</text><text fill="#000000" font-family="sans-serif" font-size="14" lengthAdjust="spacing" textLength="39" x="13" y="817.0889">email</text></g><!--class Subcription--><g id="elem_Subcription"><rect codeLine="21" fill="#F1F1F1" height="88.8906" id="Subcription" rx="5" ry="5" style="stroke:#181818;stroke-width:0.5;" width="116" x="150.5" y="735.5"/><ellipse cx="165.5" cy="751.5" fill="#ADD1B2" rx="11" ry="11" style="stroke:#181818;stroke-width:1.0;"/><path d="M167.8438,747.1719 C166.9063,746.7344 166.3125,746.5938 165.4375,746.5938 C162.8125,746.5938 160.8125,748.6719 160.8125,751.3906 L160.8125,752.5156 C160.8125,755.0938 162.9219,756.9844 165.8125,756.9844 C167.0313,756.9844 168.1875,756.6875 168.9375,756.1406 C169.5156,755.7344 169.8438,755.2813 169.8438,754.8906 C169.8438,754.4375 169.4531,754.0469 168.9844,754.0469 C168.7656,754.0469 168.5625,754.125 168.375,754.3125 C167.9219,754.7969 167.9219,754.7969 167.7344,754.8906 C167.3125,755.1563 166.625,755.2813 165.8594,755.2813 C163.8125,755.2813 162.5156,754.1875 162.5156,752.4844 L162.5156,751.3906 C162.5156,749.6094 163.7656,748.2969 165.5,748.2969 C166.0781,748.2969 166.6875,748.4531 167.1563,748.7031 C167.6406,748.9844 167.8125,749.2031 167.9063,749.6094 C167.9688,750.0156 168,750.1406 168.1406,750.2656 C168.2813,750.4063 168.5156,750.5156 168.7344,750.5156 C169,750.5156 169.2656,750.375 169.4375,750.1563 C169.5469,750 169.5781,749.8125 169.5781,749.3906 L169.5781,747.9688 C169.5781,747.5313 169.5625,747.4063 169.4688,747.25 C169.3125,746.9844 169.0313,746.8438 168.7344,746.8438 C168.4375,746.8438 168.2344,746.9375 168.0156,747.25 L167.8438,747.1719 Z " fill="#000000"/><text fill="#000000" font-family="sans-serif" font-size="14" lengthAdjust="spacing" textLength="84" x="179.5" y="756.3467">Subcription</text><line style="stroke:#181818;stroke-width:0.5;" x1="151.5" x2="265.5" y1="767.5" y2="767.5"/><text fill="#000000" font-family="sans-serif" font-size="14" lengthAdjust="spacing" textLength="44" x="156.5" y="784.4951">active</text><text fill="#000000" font-family="sans-serif" font-size="14" lengthAdjust="spacing" textLength="80" x="156.5" y="800.792">disabledOn</text><text fill="#000000" font-family="sans-serif" font-size="14" lengthAdjust="spacing" textLength="76" x="156.5" y="817.0889">createdOn</text></g><!--class Request--><g id="elem_Request"><rect codeLine="27" fill="#F1F1F1" height="56.2969" id="Request" rx="5" ry="5" style="stroke:#181818;stroke-width:0.5;" width="91" x="449" y="339"/><ellipse cx="464" cy="355" fill="#ADD1B2" rx="11" ry="11" style="stroke:#181818;stroke-width:1.0;"/><path d="M466.3438,350.6719 C465.4063,350.2344 464.8125,350.0938 463.9375,350.0938 C461.3125,350.0938 459.3125,352.1719 459.3125,354.8906 L459.3125,356.0156 C459.3125,358.5938 461.4219,360.4844 464.3125,360.4844 C465.5313,360.4844 466.6875,360.1875 467.4375,359.6406 C468.0156,359.2344 468.3438,358.7813 468.3438,358.3906 C468.3438,357.9375 467.9531,357.5469 467.4844,357.5469 C467.2656,357.5469 467.0625,357.625 466.875,357.8125 C466.4219,358.2969 466.4219,358.2969 466.2344,358.3906 C465.8125,358.6563 465.125,358.7813 464.3594,358.7813 C462.3125,358.7813 461.0156,357.6875 461.0156,355.9844 L461.0156,354.8906 C461.0156,353.1094 462.2656,351.7969 464,351.7969 C464.5781,351.7969 465.1875,351.9531 465.6563,352.2031 C466.1406,352.4844 466.3125,352.7031 466.4063,353.1094 C466.4688,353.5156 466.5,353.6406 466.6406,353.7656 C466.7813,353.9063 467.0156,354.0156 467.2344,354.0156 C467.5,354.0156 467.7656,353.875 467.9375,353.6563 C468.0469,353.5 468.0781,353.3125 468.0781,352.8906 L468.0781,351.4688 C468.0781,351.0313 468.0625,350.9063 467.9688,350.75 C467.8125,350.4844 467.5313,350.3438 467.2344,350.3438 C466.9375,350.3438 466.7344,350.4375 466.5156,350.75 L466.3438,350.6719 Z " fill="#000000"/><text fill="#000000" font-family="sans-serif" font-size="14" lengthAdjust="spacing" textLength="59" x="478" y="359.8467">Request</text><line style="stroke:#181818;stroke-width:0.5;" x1="450" x2="539" y1="371" y2="371"/><text fill="#000000" font-family="sans-serif" font-size="14" lengthAdjust="spacing" textLength="76" x="455" y="387.9951">createdOn</text></g><!--class RequestEvent--><g id="elem_RequestEvent"><rect codeLine="31" fill="#F1F1F1" height="88.8906" id="RequestEvent" rx="5" ry="5" style="stroke:#181818;stroke-width:0.5;" width="133" x="297" y="165"/><ellipse cx="312" cy="181" fill="#ADD1B2" rx="11" ry="11" style="stroke:#181818;stroke-width:1.0;"/><path d="M314.3438,176.6719 C313.4063,176.2344 312.8125,176.0938 311.9375,176.0938 C309.3125,176.0938 307.3125,178.1719 307.3125,180.8906 L307.3125,182.0156 C307.3125,184.5938 309.4219,186.4844 312.3125,186.4844 C313.5313,186.4844 314.6875,186.1875 315.4375,185.6406 C316.0156,185.2344 316.3438,184.7813 316.3438,184.3906 C316.3438,183.9375 315.9531,183.5469 315.4844,183.5469 C315.2656,183.5469 315.0625,183.625 314.875,183.8125 C314.4219,184.2969 314.4219,184.2969 314.2344,184.3906 C313.8125,184.6563 313.125,184.7813 312.3594,184.7813 C310.3125,184.7813 309.0156,183.6875 309.0156,181.9844 L309.0156,180.8906 C309.0156,179.1094 310.2656,177.7969 312,177.7969 C312.5781,177.7969 313.1875,177.9531 313.6563,178.2031 C314.1406,178.4844 314.3125,178.7031 314.4063,179.1094 C314.4688,179.5156 314.5,179.6406 314.6406,179.7656 C314.7813,179.9063 315.0156,180.0156 315.2344,180.0156 C315.5,180.0156 315.7656,179.875 315.9375,179.6563 C316.0469,179.5 316.0781,179.3125 316.0781,178.8906 L316.0781,177.4688 C316.0781,177.0313 316.0625,176.9063 315.9688,176.75 C315.8125,176.4844 315.5313,176.3438 315.2344,176.3438 C314.9375,176.3438 314.7344,176.4375 314.5156,176.75 L314.3438,176.6719 Z " fill="#000000"/><text fill="#000000" font-family="sans-serif" font-size="14" lengthAdjust="spacing" textLength="101" x="326" y="185.8467">RequestEvent</text><line style="stroke:#181818;stroke-width:0.5;" x1="298" x2="429" y1="197" y2="197"/><text fill="#000000" font-family="sans-serif" font-size="14" lengthAdjust="spacing" textLength="63" x="303" y="213.9951">message</text><text fill="#000000" font-family="sans-serif" font-size="14" lengthAdjust="spacing" textLength="38" x="303" y="230.292">state</text><text fill="#000000" font-family="sans-serif" font-size="14" lengthAdjust="spacing" textLength="76" x="303" y="246.5889">createdOn</text></g><!--class Review--><g id="elem_Review"><rect codeLine="37" fill="#F1F1F1" height="105.1875" id="Review" rx="5" ry="5" style="stroke:#181818;stroke-width:0.5;" width="88" x="771.5" y="157"/><ellipse cx="788.75" cy="173" fill="#ADD1B2" rx="11" ry="11" style="stroke:#181818;stroke-width:1.0;"/><path d="M791.0938,168.6719 C790.1563,168.2344 789.5625,168.0938 788.6875,168.0938 C786.0625,168.0938 784.0625,170.1719 784.0625,172.8906 L784.0625,174.0156 C784.0625,176.5938 786.1719,178.4844 789.0625,178.4844 C790.2813,178.4844 791.4375,178.1875 792.1875,177.6406 C792.7656,177.2344 793.0938,176.7813 793.0938,176.3906 C793.0938,175.9375 792.7031,175.5469 792.2344,175.5469 C792.0156,175.5469 791.8125,175.625 791.625,175.8125 C791.1719,176.2969 791.1719,176.2969 790.9844,176.3906 C790.5625,176.6563 789.875,176.7813 789.1094,176.7813 C787.0625,176.7813 785.7656,175.6875 785.7656,173.9844 L785.7656,172.8906 C785.7656,171.1094 787.0156,169.7969 788.75,169.7969 C789.3281,169.7969 789.9375,169.9531 790.4063,170.2031 C790.8906,170.4844 791.0625,170.7031 791.1563,171.1094 C791.2188,171.5156 791.25,171.6406 791.3906,171.7656 C791.5313,171.9063 791.7656,172.0156 791.9844,172.0156 C792.25,172.0156 792.5156,171.875 792.6875,171.6563 C792.7969,171.5 792.8281,171.3125 792.8281,170.8906 L792.8281,169.4688 C792.8281,169.0313 792.8125,168.9063 792.7188,168.75 C792.5625,168.4844 792.2813,168.3438 791.9844,168.3438 C791.6875,168.3438 791.4844,168.4375 791.2656,168.75 L791.0938,168.6719 Z " fill="#000000"/><text fill="#000000" font-family="sans-serif" font-size="14" lengthAdjust="spacing" textLength="51" x="803.25" y="177.8467">Review</text><line style="stroke:#181818;stroke-width:0.5;" x1="772.5" x2="858.5" y1="189" y2="189"/><text fill="#000000" font-family="sans-serif" font-size="14" lengthAdjust="spacing" textLength="34" x="777.5" y="205.9951">note</text><text fill="#000000" font-family="sans-serif" font-size="14" lengthAdjust="spacing" textLength="31" x="777.5" y="222.292">title</text><text fill="#000000" font-family="sans-serif" font-size="14" lengthAdjust="spacing" textLength="63" x="777.5" y="238.5889">message</text><text fill="#000000" font-family="sans-serif" font-size="14" lengthAdjust="spacing" textLength="76" x="777.5" y="254.8857">createdOn</text></g><!--class Condition--><g id="elem_Condition"><rect codeLine="44" fill="#F1F1F1" height="154.0781" id="Condition" rx="5" ry="5" style="stroke:#181818;stroke-width:0.5;" width="121" x="526" y="703"/><ellipse cx="549.55" cy="719" fill="#ADD1B2" rx="11" ry="11" style="stroke:#181818;stroke-width:1.0;"/><path d="M551.8938,714.6719 C550.9563,714.2344 550.3625,714.0938 549.4875,714.0938 C546.8625,714.0938 544.8625,716.1719 544.8625,718.8906 L544.8625,720.0156 C544.8625,722.5938 546.9719,724.4844 549.8625,724.4844 C551.0813,724.4844 552.2375,724.1875 552.9875,723.6406 C553.5656,723.2344 553.8938,722.7813 553.8938,722.3906 C553.8938,721.9375 553.5031,721.5469 553.0344,721.5469 C552.8156,721.5469 552.6125,721.625 552.425,721.8125 C551.9719,722.2969 551.9719,722.2969 551.7844,722.3906 C551.3625,722.6563 550.675,722.7813 549.9094,722.7813 C547.8625,722.7813 546.5656,721.6875 546.5656,719.9844 L546.5656,718.8906 C546.5656,717.1094 547.8156,715.7969 549.55,715.7969 C550.1281,715.7969 550.7375,715.9531 551.2063,716.2031 C551.6906,716.4844 551.8625,716.7031 551.9563,717.1094 C552.0188,717.5156 552.05,717.6406 552.1906,717.7656 C552.3313,717.9063 552.5656,718.0156 552.7844,718.0156 C553.05,718.0156 553.3156,717.875 553.4875,717.6563 C553.5969,717.5 553.6281,717.3125 553.6281,716.8906 L553.6281,715.4688 C553.6281,715.0313 553.6125,714.9063 553.5188,714.75 C553.3625,714.4844 553.0813,714.3438 552.7844,714.3438 C552.4875,714.3438 552.2844,714.4375 552.0656,714.75 L551.8938,714.6719 Z " fill="#000000"/><text fill="#000000" font-family="sans-serif" font-size="14" lengthAdjust="spacing" textLength="70" x="565.45" y="723.8467">Condition</text><line style="stroke:#181818;stroke-width:0.5;" x1="527" x2="646" y1="735" y2="735"/><text fill="#000000" font-family="sans-serif" font-size="14" lengthAdjust="spacing" textLength="40" x="532" y="751.9951">name</text><text fill="#000000" font-family="sans-serif" font-size="14" lengthAdjust="spacing" textLength="81" x="532" y="768.292">refundRate</text><text fill="#000000" font-family="sans-serif" font-size="14" lengthAdjust="spacing" textLength="86" x="532" y="784.5889">refundMode</text><text fill="#000000" font-family="sans-serif" font-size="14" lengthAdjust="spacing" textLength="63" x="532" y="800.8857">message</text><text fill="#000000" font-family="sans-serif" font-size="14" lengthAdjust="spacing" textLength="109" x="532" y="817.1826">requirePictures</text><text fill="#000000" font-family="sans-serif" font-size="14" lengthAdjust="spacing" textLength="99" x="532" y="833.4795">requireVideos</text><text fill="#000000" font-family="sans-serif" font-size="14" lengthAdjust="spacing" textLength="76" x="532" y="849.7764">createdOn</text></g><!--class Product--><g id="elem_Product"><rect codeLine="54" fill="#F1F1F1" height="154.0781" id="Product" rx="5" ry="5" style="stroke:#181818;stroke-width:0.5;" width="137" x="591" y="472"/><ellipse cx="628.05" cy="488" fill="#ADD1B2" rx="11" ry="11" style="stroke:#181818;stroke-width:1.0;"/><path d="M630.3938,483.6719 C629.4563,483.2344 628.8625,483.0938 627.9875,483.0938 C625.3625,483.0938 623.3625,485.1719 623.3625,487.8906 L623.3625,489.0156 C623.3625,491.5938 625.4719,493.4844 628.3625,493.4844 C629.5813,493.4844 630.7375,493.1875 631.4875,492.6406 C632.0656,492.2344 632.3938,491.7813 632.3938,491.3906 C632.3938,490.9375 632.0031,490.5469 631.5344,490.5469 C631.3156,490.5469 631.1125,490.625 630.925,490.8125 C630.4719,491.2969 630.4719,491.2969 630.2844,491.3906 C629.8625,491.6563 629.175,491.7813 628.4094,491.7813 C626.3625,491.7813 625.0656,490.6875 625.0656,488.9844 L625.0656,487.8906 C625.0656,486.1094 626.3156,484.7969 628.05,484.7969 C628.6281,484.7969 629.2375,484.9531 629.7063,485.2031 C630.1906,485.4844 630.3625,485.7031 630.4563,486.1094 C630.5188,486.5156 630.55,486.6406 630.6906,486.7656 C630.8313,486.9063 631.0656,487.0156 631.2844,487.0156 C631.55,487.0156 631.8156,486.875 631.9875,486.6563 C632.0969,486.5 632.1281,486.3125 632.1281,485.8906 L632.1281,484.4688 C632.1281,484.0313 632.1125,483.9063 632.0188,483.75 C631.8625,483.4844 631.5813,483.3438 631.2844,483.3438 C630.9875,483.3438 630.7844,483.4375 630.5656,483.75 L630.3938,483.6719 Z " fill="#000000"/><text fill="#000000" font-family="sans-serif" font-size="14" lengthAdjust="spacing" textLength="56" x="646.95" y="492.8467">Product</text><line style="stroke:#181818;stroke-width:0.5;" x1="592" x2="727" y1="504" y2="504"/><text fill="#000000" font-family="sans-serif" font-size="14" lengthAdjust="spacing" textLength="40" x="597" y="520.9951">name</text><text fill="#000000" font-family="sans-serif" font-size="14" lengthAdjust="spacing" textLength="82" x="597" y="537.292">description</text><text fill="#000000" font-family="sans-serif" font-size="14" lengthAdjust="spacing" textLength="37" x="597" y="553.5889">price</text><text fill="#000000" font-family="sans-serif" font-size="14" lengthAdjust="spacing" textLength="125" x="597" y="569.8857">availableQuantity</text><text fill="#000000" font-family="sans-serif" font-size="14" lengthAdjust="spacing" textLength="70" x="597" y="586.1826">published</text><text fill="#000000" font-family="sans-serif" font-size="14" lengthAdjust="spacing" textLength="26" x="597" y="602.4795">link</text><text fill="#000000" font-family="sans-serif" font-size="14" lengthAdjust="spacing" textLength="76" x="597" y="618.7764">createdOn</text></g><!--class Media--><g id="elem_Media"><rect codeLine="64" fill="#F1F1F1" height="72.5938" id="Media" rx="5" ry="5" style="stroke:#181818;stroke-width:0.5;" width="74" x="829.5" y="7"/><ellipse cx="844.5" cy="23" fill="#ADD1B2" rx="11" ry="11" style="stroke:#181818;stroke-width:1.0;"/><path d="M846.8438,18.6719 C845.9063,18.2344 845.3125,18.0938 844.4375,18.0938 C841.8125,18.0938 839.8125,20.1719 839.8125,22.8906 L839.8125,24.0156 C839.8125,26.5938 841.9219,28.4844 844.8125,28.4844 C846.0313,28.4844 847.1875,28.1875 847.9375,27.6406 C848.5156,27.2344 848.8438,26.7813 848.8438,26.3906 C848.8438,25.9375 848.4531,25.5469 847.9844,25.5469 C847.7656,25.5469 847.5625,25.625 847.375,25.8125 C846.9219,26.2969 846.9219,26.2969 846.7344,26.3906 C846.3125,26.6563 845.625,26.7813 844.8594,26.7813 C842.8125,26.7813 841.5156,25.6875 841.5156,23.9844 L841.5156,22.8906 C841.5156,21.1094 842.7656,19.7969 844.5,19.7969 C845.0781,19.7969 845.6875,19.9531 846.1563,20.2031 C846.6406,20.4844 846.8125,20.7031 846.9063,21.1094 C846.9688,21.5156 847,21.6406 847.1406,21.7656 C847.2813,21.9063 847.5156,22.0156 847.7344,22.0156 C848,22.0156 848.2656,21.875 848.4375,21.6563 C848.5469,21.5 848.5781,21.3125 848.5781,20.8906 L848.5781,19.4688 C848.5781,19.0313 848.5625,18.9063 848.4688,18.75 C848.3125,18.4844 848.0313,18.3438 847.7344,18.3438 C847.4375,18.3438 847.2344,18.4375 847.0156,18.75 L846.8438,18.6719 Z " fill="#000000"/><text fill="#000000" font-family="sans-serif" font-size="14" lengthAdjust="spacing" textLength="42" x="858.5" y="27.8467">Media</text><line style="stroke:#181818;stroke-width:0.5;" x1="830.5" x2="902.5" y1="39" y2="39"/><text fill="#000000" font-family="sans-serif" font-size="14" lengthAdjust="spacing" textLength="55" x="835.5" y="55.9951">caption</text><text fill="#000000" font-family="sans-serif" font-size="14" lengthAdjust="spacing" textLength="18" x="835.5" y="72.292">url</text></g><!--link Invitation to User--><g id="link_Invitation_User"><path codeLine="69" d="M63.9642,824.723 C69.9163,850.797 81.2152,882.838 102.5,904 C170.905,972.011 286.006,996.6588 350.348,1005.3868 " fill="none" id="Invitation-User" style="stroke:#181818;stroke-width:1.0;"/><text fill="#000000" font-family="sans-serif" font-size="13" lengthAdjust="spacing" textLength="69" x="103.5" y="900.0669">created by</text><text fill="#000000" font-family="sans-serif" font-size="13" lengthAdjust="spacing" textLength="7" x="57.3996" y="844.4779">*</text><text fill="#000000" font-family="sans-serif" font-size="13" lengthAdjust="spacing" textLength="8" x="334.5154" y="1017.7468">1</text></g><!--link Subcription to User--><g id="link_Subcription_User"><path codeLine="71" d="M222.644,824.741 C232.026,849.572 246.026,880.322 264.5,904 C288.294,934.496 322.563,961.538 350.356,980.675 " fill="none" id="Subcription-User" style="stroke:#181818;stroke-width:1.0;"/><text fill="#000000" font-family="sans-serif" font-size="13" lengthAdjust="spacing" textLength="51" x="265.5" y="900.0669">follower</text><text fill="#000000" font-family="sans-serif" font-size="13" lengthAdjust="spacing" textLength="7" x="217.2073" y="844.4986">*</text><text fill="#000000" font-family="sans-serif" font-size="13" lengthAdjust="spacing" textLength="8" x="334.5246" y="971.9541">1</text></g><!--link Subcription to User--><g id="link_Subcription_User"><path codeLine="72" d="M187.1,824.789 C178.217,849.635 172.967,880.385 187.5,904 C222.818,961.389 299.847,988.8343 350.147,1001.095 " fill="none" id="Subcription-User-1" style="stroke:#181818;stroke-width:1.0;"/><text fill="#000000" font-family="sans-serif" font-size="13" lengthAdjust="spacing" textLength="57" x="188.5" y="900.0669">following</text><text fill="#000000" font-family="sans-serif" font-size="13" lengthAdjust="spacing" textLength="7" x="176.4428" y="844.5536">*</text><text fill="#000000" font-family="sans-serif" font-size="13" lengthAdjust="spacing" textLength="8" x="334.6045" y="995.6096">1</text></g><!--link Request to Product--><g id="link_Request_Product"><path codeLine="74" d="M519.56,395.338 C538.582,416.09 565.693,445.665 590.994,473.266 " fill="none" id="Request-Product" style="stroke:#181818;stroke-width:1.0;"/><text fill="#000000" font-family="sans-serif" font-size="13" lengthAdjust="spacing" textLength="51" x="563.5" y="438.0669">concern</text><text fill="#000000" font-family="sans-serif" font-size="13" lengthAdjust="spacing" textLength="7" x="517.2763" y="415.2265">*</text><text fill="#000000" font-family="sans-serif" font-size="13" lengthAdjust="spacing" textLength="8" x="575.0637" y="461.2322">1</text></g><!--link Request to User--><g id="link_Request_User"><path codeLine="75" d="M492.009,395.228 C484.535,474.304 460.509,710.621 423.5,904 C421.648,913.677 419.476,923.797 417.189,933.78 " fill="none" id="Request-User" style="stroke:#181818;stroke-width:1.0;"/><text fill="#000000" font-family="sans-serif" font-size="13" lengthAdjust="spacing" textLength="69" x="463.5" y="669.0669">created by</text><text fill="#000000" font-family="sans-serif" font-size="13" lengthAdjust="spacing" textLength="7" x="483.6236" y="415.538">*</text><text fill="#000000" font-family="sans-serif" font-size="13" lengthAdjust="spacing" textLength="8" x="410.6353" y="923.0393">1</text></g><!--link Request to User--><g id="link_Request_User"><path codeLine="76" d="M481.94,395.024 C459.416,445.144 412.969,556.476 396.5,656 C380.822,750.741 384.655,861.706 390.022,933.798 " fill="none" id="Request-User-1" style="stroke:#181818;stroke-width:1.0;"/><text fill="#000000" font-family="sans-serif" font-size="13" lengthAdjust="spacing" textLength="55" x="397.5" y="669.0669">recipient</text><text fill="#000000" font-family="sans-serif" font-size="13" lengthAdjust="spacing" textLength="7" x="471.2261" y="415.2868">*</text><text fill="#000000" font-family="sans-serif" font-size="13" lengthAdjust="spacing" textLength="8" x="380.9639" y="923.0589">1</text></g><!--link RequestEvent to Request--><g id="link_RequestEvent_Request"><path codeLine="78" d="M400.339,254.229 C423.194,281.358 451.847,315.37 471.507,338.707 " fill="none" id="RequestEvent-Request" style="stroke:#181818;stroke-width:1.0;"/><text fill="#000000" font-family="sans-serif" font-size="13" lengthAdjust="spacing" textLength="98" x="446.5" y="305.0669">related request</text><text fill="#000000" font-family="sans-serif" font-size="13" lengthAdjust="spacing" textLength="7" x="398.2357" y="273.9848">*</text><text fill="#000000" font-family="sans-serif" font-size="13" lengthAdjust="spacing" textLength="8" x="457.6023" y="327.9262">1</text></g><!--link RequestEvent to User--><g id="link_RequestEvent_User"><path codeLine="79" d="M354.732,254.221 C344.84,305.961 329.368,394.835 323.5,472 C318.31,540.247 316.995,557.865 323.5,626 C333.808,733.969 360.067,856.719 378.356,933.759 " fill="none" id="RequestEvent-User" style="stroke:#181818;stroke-width:1.0;"/><text fill="#000000" font-family="sans-serif" font-size="13" lengthAdjust="spacing" textLength="69" x="324.5" y="553.5669">created by</text><text fill="#000000" font-family="sans-serif" font-size="13" lengthAdjust="spacing" textLength="7" x="345.9301" y="273.9756">*</text><text fill="#000000" font-family="sans-serif" font-size="13" lengthAdjust="spacing" textLength="8" x="368.2224" y="923.0164">1</text></g><!--link Review to User--><g id="link_Review_User"><path codeLine="81" d="M828.576,262.327 C835.051,292.393 841.5,331.102 841.5,366 C841.5,366 841.5,366 841.5,781 C841.5,958.15 558.864,998.3952 444.595,1007.427 " fill="none" id="Review-User" style="stroke:#181818;stroke-width:1.0;"/><text fill="#000000" font-family="sans-serif" font-size="13" lengthAdjust="spacing" textLength="69" x="842.5" y="553.5669">created by</text><text fill="#000000" font-family="sans-serif" font-size="13" lengthAdjust="spacing" textLength="7" x="822.8029" y="282.1198">*</text><text fill="#000000" font-family="sans-serif" font-size="13" lengthAdjust="spacing" textLength="8" x="452.4189" y="1020.0994">1</text></g><!--link Review to Request--><g id="link_Review_Request"><path codeLine="82" d="M771.203,231.958 C710.405,261.411 601.658,314.09 540.155,343.884 " fill="none" id="Review-Request" style="stroke:#181818;stroke-width:1.0;"/><text fill="#000000" font-family="sans-serif" font-size="13" lengthAdjust="spacing" textLength="65" x="646.5" y="305.0669">review for</text><text fill="#000000" font-family="sans-serif" font-size="13" lengthAdjust="spacing" textLength="24" x="739.6381" y="231.0312">0..1</text><text fill="#000000" font-family="sans-serif" font-size="13" lengthAdjust="spacing" textLength="8" x="548.0688" y="336.0584">1</text></g><!--link Condition to User--><g id="link_Condition_User"><path codeLine="84" d="M534.615,857.058 C523.123,872.883 510.717,889.231 498.5,904 C481.812,924.174 462.202,945.273 444.724,963.288 " fill="none" id="Condition-User" style="stroke:#181818;stroke-width:1.0;"/><text fill="#000000" font-family="sans-serif" font-size="13" lengthAdjust="spacing" textLength="69" x="512.5" y="900.0669">created by</text><text fill="#000000" font-family="sans-serif" font-size="13" lengthAdjust="spacing" textLength="7" x="522.3361" y="877.1869">*</text><text fill="#000000" font-family="sans-serif" font-size="13" lengthAdjust="spacing" textLength="8" x="452.5677" y="951.9047">1</text></g><!--link Product to Condition--><g id="link_Product_Condition"><path codeLine="86" d="M614.391,626.13 C609.825,635.951 605.701,646.055 602.5,656 C597.717,670.862 594.36,687.17 592.005,702.915 " fill="none" id="Product-Condition" style="stroke:#181818;stroke-width:1.0;"/><text fill="#000000" font-family="sans-serif" font-size="13" lengthAdjust="spacing" textLength="87" x="603.5" y="669.0669">test condition</text><text fill="#000000" font-family="sans-serif" font-size="13" lengthAdjust="spacing" textLength="7" x="602.758" y="646.2658">*</text><text fill="#000000" font-family="sans-serif" font-size="13" lengthAdjust="spacing" textLength="8" x="584.1484" y="691.9225">1</text></g><!--link Product to User--><g id="link_Product_User"><path codeLine="87" d="M688.675,626.242 C691.484,636.131 693.885,646.221 695.5,656 C707.194,726.793 750.261,727.779 664.5,857 C612.653,935.122 506.41,978.038 444.719,997.3026 " fill="none" id="Product-User" style="stroke:#181818;stroke-width:1.0;"/><text fill="#000000" font-family="sans-serif" font-size="13" lengthAdjust="spacing" textLength="69" x="718.5" y="784.5669">created by</text><text fill="#000000" font-family="sans-serif" font-size="13" lengthAdjust="spacing" textLength="7" x="684.0419" y="646.1236">*</text><text fill="#000000" font-family="sans-serif" font-size="13" lengthAdjust="spacing" textLength="8" x="452.5619" y="991.1283">1</text></g><!--link Media to Product--><g id="link_Media_Product"><path codeLine="89" d="M882.161,80.25 C885.604,89.738 888.744,100.103 890.5,110 C906.055,197.664 906.441,228.934 867.5,309 C833.818,378.252 774.769,443.238 728.171,487.913 " fill="none" id="Media-Product" style="stroke:#181818;stroke-width:1.0;"/><text fill="#000000" font-family="sans-serif" font-size="13" lengthAdjust="spacing" textLength="62" x="876.5" y="305.0669">related to</text><text fill="#000000" font-family="sans-serif" font-size="13" lengthAdjust="spacing" textLength="7" x="877.1752" y="99.6904">*</text><text fill="#000000" font-family="sans-serif" font-size="13" lengthAdjust="spacing" textLength="8" x="736.1194" y="477.4812">1</text></g><!--link Media to Review--><g id="link_Media_Review"><path codeLine="90" d="M837.759,80.11 C831.697,89.354 826.064,99.636 822.5,110 C817.426,124.753 815.075,141.464 814.152,156.876 " fill="none" id="Media-Review" style="stroke:#181818;stroke-width:1.0;"/><text fill="#000000" font-family="sans-serif" font-size="13" lengthAdjust="spacing" textLength="62" x="823.5" y="123.0669">related to</text><text fill="#000000" font-family="sans-serif" font-size="13" lengthAdjust="spacing" textLength="7" x="825.4191" y="99.5273">*</text><text fill="#000000" font-family="sans-serif" font-size="13" lengthAdjust="spacing" textLength="8" x="805.4334" y="145.8601">1</text></g><!--SRC=[ZPF1JiCm38RlUOfeHoJGTkMAE72O622ufud7hAL9SP9E4-BTIPjc2siBxB8w_Nx_ZkswFPf6aAWvsM2Kj6I0-6h9TgY0Gztu8w_1xwnoFu_g2iWn9hLmZh-wAFfaFFv2V3IYXZw0Mg3kdvg87IofFb3W967ZqPe-5gtmWbufeMHrKai2uK4z6lQLZHvCYrvqmi7kp7HH3Sw9zzBxf7m9LVOSf49wR1Ehq8bAdz9C63_3Hm3dHwwNm7qB9bDbDIvM3VFQ5k4mg8mTG8z-Q4IPQ49-Put2ucAdzXDiuqoVitCArrQDirAi7WasA7qWSENPMvowTNFU6x8gI7_fV3dXXb12dZNghjbFGPXunMDw7ogDRWTfFpIQVVS_Pxe6XIAFGfnT0lK3BvPaSRNWrzTyiLga7RtDwNXrPApSYJ6vjLhR0z2_C3JlZEKbAQ3SdsXiZOoVnXGqBcqU8f3OO5ooarrQkOBCuWxMVKPA9xEAYTuCE_b7bObPtjoi9jtxrrjBZ9rtz7VRtA-2EajlkUyootmmHK_aJEioEPJS86_7r72x4le6]--></g></svg>